<svg xmlns="http://www.w3.org/2000/svg" xmlns:xlink="http://www.w3.org/1999/xlink" xmlns:lucid="lucid" width="1800" height="1240"><g transform="translate(20 -20)" lucid:page-tab-id="0_0"><path d="M0 0h1760v1360H0z" fill="#fff"/><path d="M400 326a6 6 0 0 1 6-6h328a6 6 0 0 1 6 6v508a6 6 0 0 1-6 6H406a6 6 0 0 1-6-6z" stroke="#3a414a" fill-opacity="0"/><use xlink:href="#a" transform="matrix(1,0,0,1,408,328) translate(7.401234567901241 17.77777777777778)"/><use xlink:href="#b" transform="matrix(1,0,0,1,408,328) translate(96.9074074074074 17.77777777777778)"/><use xlink:href="#c" transform="matrix(1,0,0,1,408,328) translate(159.00617283950618 17.77777777777778)"/><use xlink:href="#d" transform="matrix(1,0,0,1,408,328) translate(102.24691358024691 44.44444444444444)"/><path d="M400 846a6 6 0 0 1 6-6h328a6 6 0 0 1 6 6v368a6 6 0 0 1-6 6H406a6 6 0 0 1-6-6z" stroke="#3a414a" fill-opacity="0"/><use xlink:href="#a" transform="matrix(1,0,0,1,408,848) translate(37.49382716049382 17.77777777777778)"/><use xlink:href="#b" transform="matrix(1,0,0,1,408,848) translate(126.99999999999999 17.77777777777778)"/><use xlink:href="#e" transform="matrix(1,0,0,1,408,848) translate(189.09876543209876 17.77777777777778)"/><use xlink:href="#d" transform="matrix(1,0,0,1,408,848) translate(102.24691358024691 44.44444444444444)"/><path d="M1080 46a6 6 0 0 1 6-6h568a6 6 0 0 1 6 6v648a6 6 0 0 1-6 6h-568a6 6 0 0 1-6-6z" stroke="#3a414a" fill-opacity="0"/><use xlink:href="#f" transform="matrix(1,0,0,1,1088,48) translate(192.58641975308643 17.77777777777778)"/><use xlink:href="#g" transform="matrix(1,0,0,1,1088,48) translate(293.75925925925924 17.77777777777778)"/><path d="M100 286a6 6 0 0 1 6-6h648a6 6 0 0 1 6 6v948a6 6 0 0 1-6 6H106a6 6 0 0 1-6-6z" stroke="#3a414a" fill-opacity="0"/><use xlink:href="#h" transform="matrix(1,0,0,1,108,288) translate(252.3395061728395 17.77777777777778)"/><use xlink:href="#i" transform="matrix(1,0,0,1,108,288) translate(305.3024691358024 17.77777777777778)"/><path d="M59.75 419.75c0 10.9-8.84 19.75-19.75 19.75-10.9 0-19.75-8.84-19.75-19.75C20.25 408.85 29.1 400 40 400c10.9 0 19.75 8.84 19.75 19.75z" stroke="#3a414a" fill="#fff"/><path d="M40 439.5v49.3a20.7 20.7 0 0 0 3.2 11.07L80 558m-40-63.2L0 558m0-98.75h80" stroke="#3a414a" fill="none"/><path d="M0 406a6 6 0 0 1 6-6h68a6 6 0 0 1 6 6v168a6 6 0 0 1-6 6H6a6 6 0 0 1-6-6z" fill="none"/><use xlink:href="#j" transform="matrix(1,0,0,1,-80,558) translate(96.60493827160494 17.77777777777778)"/><path d="M320 420c0 33.14-35.82 60-80 60s-80-26.86-80-60 35.82-60 80-60 80 26.86 80 60z" stroke="#3a414a" fill="#fff"/><use xlink:href="#k" transform="matrix(1,0,0,1,160,360) translate(11.654999999999982 63.15)"/><use xlink:href="#l" transform="matrix(1,0,0,1,160,360) translate(110.405 63.15)"/><path d="M159 420h-33.25a6 6 0 0 0-6 6v58a6 6 0 0 1-6 6H80.5" stroke="#3a414a" fill="none"/><path d="M159.5 420v.5h-.5v-1h.5zM80.5 490.5H77v-1h3.5z" stroke="#3a414a" stroke-width=".05" fill="#3a414a"/><path d="M320 560c0 33.14-35.82 60-80 60s-80-26.86-80-60 35.82-60 80-60 80 26.86 80 60z" stroke="#3a414a" fill="#fff"/><use xlink:href="#m" transform="matrix(1,0,0,1,160,500) translate(37.529999999999994 63.15)"/><use xlink:href="#l" transform="matrix(1,0,0,1,160,500) translate(84.53 63.15)"/><path d="M159 560h-33.25a6 6 0 0 1-6-6v-58a6 6 0 0 0-6-6H80.5" stroke="#3a414a" fill="none"/><path d="M159.5 560v.5h-.5v-1h.5zM80.5 490.5H77v-1h3.5z" stroke="#3a414a" stroke-width=".05" fill="#3a414a"/><path d="M1280 420c0 33.14-35.82 60-80 60s-80-26.86-80-60 35.82-60 80-60 80 26.86 80 60z" stroke="#3a414a" fill="#fff"/><use xlink:href="#n" transform="matrix(1,0,0,1,1120,360) translate(43.03 40.65)"/><use xlink:href="#o" transform="matrix(1,0,0,1,1120,360) translate(101.98 40.65)"/><use xlink:href="#p" transform="matrix(1,0,0,1,1120,360) translate(12.430000000000001 62.25)"/><use xlink:href="#q" transform="matrix(1,0,0,1,1120,360) translate(132.57999999999998 62.25)"/><use xlink:href="#r" transform="matrix(1,0,0,1,1120,360) translate(59.230000000000004 83.85000000000001)"/><path d="M1280 560c0 33.14-35.82 60-80 60s-80-26.86-80-60 35.82-60 80-60 80 26.86 80 60z" stroke="#3a414a" fill="#fff"/><use xlink:href="#s" transform="matrix(1,0,0,1,1120,500) translate(51.05499999999999 36.9)"/><use xlink:href="#t" transform="matrix(1,0,0,1,1120,500) translate(21.57999999999999 58.5)"/><use xlink:href="#u" transform="matrix(1,0,0,1,1120,500) translate(108.43 58.5)"/><use xlink:href="#v" transform="matrix(1,0,0,1,1120,500) translate(21.98 80.10000000000001)"/><use xlink:href="#w" transform="matrix(1,0,0,1,1120,500) translate(68.83 80.10000000000001)"/><path d="M1739.75 419.75c0 10.9-8.84 19.75-19.75 19.75-10.9 0-19.75-8.84-19.75-19.75 0-10.9 8.84-19.75 19.75-19.75 10.9 0 19.75 8.84 19.75 19.75z" stroke="#3a414a" fill="#fff"/><path d="M1720 439.5v49.3a20.7 20.7 0 0 0 3.2 11.07L1760 558m-40-63.2l-40 63.2m0-98.75h80" stroke="#3a414a" fill="none"/><path d="M1680 406a6 6 0 0 1 6-6h68a6 6 0 0 1 6 6v168a6 6 0 0 1-6 6h-68a6 6 0 0 1-6-6z" fill="none"/><use xlink:href="#x" transform="matrix(1,0,0,1,1600,558) translate(82.99382716049382 17.77777777777778)"/><path d="M1281 420h193.25a6 6 0 0 1 6 6v58a6 6 0 0 0 6 6h193.25" stroke="#3a414a" fill="none"/><path d="M1281 420.5h-.52l.02-.5v-.5h.5zM1683 490.5h-3.5v-1h3.5zM1468.22 560.5H1281v-1h187.22zm211.28-70h-193.23l-.88.07-.85.2-.8.33-.73.45-.66.56-.56.67-.45.73-.33.8-.2.84-.07.88v48.4h-1V496l.08-1 .24-1 .4-.93.52-.87.65-.78.78-.66.87-.53.94-.38 1-.24 1-.08h193.26z" stroke="#3a414a" stroke-width=".05" fill="#3a414a"/><path d="M1281 560.5h-.52l.02-.5v-.5h.5z" fill="#3a414a"/><path d="M1281.04 560.52h-.58v-1.04h.58zm-.52-1v.96h.47v-.96z" stroke="#3a414a" stroke-width=".05" fill="#3a414a"/><path d="M1683 490.5h-3.5v-1h3.5z" fill="#3a414a"/><path d="M1683.03 490.52h-3.57v-1.04h3.57zm-3.52-1v.96h3.47v-.96z" stroke="#3a414a" stroke-width=".05" fill="#3a414a"/><path d="M1460 280c0 33.14-35.82 60-80 60s-80-26.86-80-60 35.82-60 80-60 80 26.86 80 60z" stroke="#3a414a" fill="#fff"/><use xlink:href="#y" transform="matrix(1,0,0,1,1300,220) translate(37.55499999999999 51.9)"/><use xlink:href="#z" transform="matrix(1,0,0,1,1300,220) translate(35.07999999999999 73.5)"/><path d="M1461 280h103.25a6 6 0 0 1 6 6v198a6 6 0 0 0 6 6h103.25" stroke="#3a414a" fill="none"/><path d="M1461 280.5h-.52l.02-.5v-.5h.5zM1683 490.5h-3.5v-1h3.5zM1200.5 359h-1v-2.03h1zm0-6.08h-1v-4.06h1zm0-8.1h-1v-4.07h1zm0-8.13h-1v-4.06h1zm0-8.12h-1v-4.05h1zm0-8.1h-1v-4.06h1zm0-8.12h-1v-4.05h1zm0-8.1h-1v-4.07h1zm0-8.12h-1v-4.06h1zm98.5-15.64h-1.94v-1h1.94zm-5.8 0h-3.9v-1h3.9zm-7.76 0h-3.88v-1h3.88zm-7.75 0h-3.9v-1h3.9zm-7.76 0h-3.88v-1h3.88zm-7.75 0h-.42v-1h.4z" stroke="#3a414a" stroke-width=".05" fill="#3a414a"/><path d="M1299.5 280v.5h-.5v-1h.52z" fill="#3a414a"/><path d="M1299.53 280v.53h-.57v-1.05h.58zm-.52-.48v.96h.48v-.96z" stroke="#3a414a" stroke-width=".05" fill="#3a414a"/><path d="M1200.5 359.5h-1v-.5h1z" fill="#3a414a"/><path d="M1200.53 359.54l-.52-.02h-.53v-.56h1.06zm-1-.53v.48h.95v-.47z" stroke="#3a414a" stroke-width=".05" fill="#3a414a"/><use xlink:href="#A" transform="matrix(1,0,0,1,1158.2222222157234,269.3333333333333) translate(0 14.222222222222223)"/><path d="M1516.48 660.5l-.47.18-.98.24-1 .08h-2v-1h1.96l.88-.07.84-.2.4-.17zm-8.4.5h-3.95v-1h3.95zm-7.9 0h-3.95v-1h3.95zm-7.9 0h-3.95v-1h3.95zm-7.9 0h-3.94v-1h3.94zm-7.9 0h-3.94v-1h3.95zm-7.9 0h-3.94v-1h3.95zm-7.9 0h-3.94v-1h3.95zm-7.88 0h-3.95v-1h3.95zm-7.9 0h-3.95v-1h3.95zm-7.9 0h-3.95v-1h3.95zm-7.9 0h-3.95v-1h3.95zm-7.9 0h-3.94v-1h3.94zm-7.9 0h-3.94v-1h3.95zm-7.9 0h-3.94v-1h3.95zm-7.9 0h-3.94v-1h3.95zm-7.88 0h-3.95v-1h3.94zm-7.9 0h-3.95v-1h3.95zm-7.9 0h-3.95v-1h3.95zm-7.9 0h-3.95v-1h3.95zm-7.9 0h-3.94v-1h3.95zm-7.9 0h-3.94v-1h3.95zm-7.9 0h-3.94v-1h3.95zm-7.9 0h-3.93l-.02-1h3.95zm-7.88 0h-3.95v-1h3.94zm-7.9 0h-3.95v-1h3.94zm-7.9 0h-3.95v-1h3.94zm-7.9 0h-3.94v-1h3.94zm-7.9 0h-3.94v-1h3.95zm-7.9 0H1283v-1h3.95zm-7.9 0h-3.94v-1h3.95zm-7.9 0h-3.94v-1h3.95zm-7.88 0h-3.95v-1h3.96zm-7.9 0h-3.95v-1h3.96zm-7.9 0h-3.95v-1h3.96zm-7.9 0h-3.94v-1h3.94zm-7.9 0h-3.94v-1h3.95zm-7.9 0h-3.94v-1h3.95zm-7.9 0h-3.94v-1h3.95zm-11.56-1.27l.84.2.88.07h1.95v1h-2l-1-.08-.98-.24-.48-.2.38-.92zm316.2-5.2l-.08 1-.24.98-.2.48-.92-.38.17-.4.2-.84.07-.88v-1.97h1zm-320-.05l.07.88.2.84.17.4-.93.38-.18-.47-.24-.98-.08-1v-2.1h1zm320-5.95h-1v-3.98h1zm-320-.3h-1v-4.2h1zm320-7.65h-1v-3.98h1zm-320-.74h-1v-4.18h1zm320-7.22h-1v-3.98h1zm-320-1.15h-1v-4.2h1zm320-6.8h-1v-3.98h1zm-320-1.58h-1V621h1zm320-6.4h-1v-3.97h1zm0-7.95h-1v-3.98h1zm0-7.95h-1v-3.98h1zm0-7.96h-1v-3.98h1zm0-7.96h-1v-3.97h1zm0-7.95h-1v-3.98h1zm0-7.96h-1v-3.2h1zm0-24.54h-1v-3.3h1zm0-7.28h-1v-3.98h1zm0-7.96h-1v-4h1zm0-7.97h-1v-3.97h1zm0-7.95h-1v-3.98h1zm0-7.96h-1v-3.98h1zm0-7.95h-1v-3.98h1zm0-7.96h-1v-3.97h1zm0-7.95h-1v-3.97h1zm0-7.95h-1v-3.98h1zm0-7.96h-1v-3.98h1zm0-7.95h-1v-4h1zm0-7.97h-1v-3.98h1zm0-7.96h-1v-3.98h1zm0-7.95h-1v-3.98h1zm0-7.96h-1v-3.98h1zm0-7.95h-1v-3.97h1zm0-7.95h-1v-3.98h1zm0-7.96h-1v-4h1zm0-7.96h-1v-3.98h1zm0-7.96h-1V382h1zm0-7.96h-1v-3.97h1zm0-7.95h-1v-3.98h1zm0-7.96h-1v-3.97h1zm0-7.94h-1v-3.98h1zm0-7.96h-1v-3.98h1zm0-7.96h-1v-3.98h1zm0-7.95h-1v-4h1zm0-7.97h-1v-3.98h1zm0-7.95h-1v-3.98h1zm0-7.96h-1v-3.98h1zm0-7.96h-1v-3.97h1zm0-7.95h-1v-3.97h1zm0-7.95h-1v-3.98h1zm0-7.96h-1v-3.98h1zm0-7.96h-1v-3.98h1zm0-7.96h-1v-3.98h1zm0-7.95h-1v-3.98h1zm0-7.96h-1v-3.98h1zm0-7.96h-1v-3.96h1zm0-7.94h-1v-3.98h1zm0-7.96h-1v-3.98h1zm0-7.96h-1v-3.97h1zm0-7.95h-1v-2h1z" stroke="#3a414a" stroke-width=".05" fill="#3a414a"/><path d="M1520 200.5h.5v.5h-1v-.5z" fill="#3a414a"/><path d="M1520 200.47h.53v.57h-1.06v-.58zm-.47.52h.94v-.48h-.95z" stroke="#3a414a" stroke-width=".05" fill="#3a414a"/><path d="M1200 620.5h.5v.5h-1v-.5z" fill="#3a414a"/><path d="M1200 620.48h.53v.56h-1.06v-.58zm-.47.5h.94v-.46h-.95z" stroke="#3a414a" stroke-width=".05" fill="#3a414a"/><use xlink:href="#A" transform="matrix(1,0,0,1,1468.2222222222222,544.4345218237877) translate(0 14.222222222222223)"/><path d="M240.5 359h-1v-1.97h1zm0-5.92h-1v-3.94h1zm0-7.9h-1v-3.93h1zm0-7.87h-1v-3.94h1zm0-7.88h-1v-3.95h1zm0-7.9h-1v-3.94h1zm0-7.88h-1v-3.95h1zm0-7.9h-1v-3.93h1zm0-7.88h-1v-3.94h1zm0-7.9h-1v-3.93h1zm0-7.88h-1v-3.94h1zm0-7.9h-1v-3.93h1zm0-7.87h-1v-3.94h1zm0-7.88h-1v-3.95h1zm0-7.9h-1v-3.94h1zm0-7.88h-1v-3.95h1zm0-7.9h-1v-3.93h1zm0-7.88h-1v-3.94h1zm0-7.9h-1v-3.93h1zm0-7.88h-1v-3.94h1zm0-7.9h-1v-3.93h1zm0-7.87h-1v-3.94h1zm0-7.88h-1v-3.95h1zm0-7.9h-1v-3.94h1zm0-7.88h-1v-3.95h1zm0-7.9h-1v-3.93h1zm0-7.88h-1v-3.94h1zm.44-11.96l-.17.4-.2.84-.07.88v1.95h-1v-2l.08-1 .24-.98.2-.48zm7.06-3.4h-1.98l-.88.07-.84.2-.4.17-.38-.93.47-.18.98-.24 1-.08H248zm1191 0h-2v-1h2zm-6 0h-4v-1h4zm-8 0h-4.02v-1h4zm-8.02 0h-4v-1h4zm-8 0h-4v-1h4zm-8 0h-4.02v-1h4zm-8.02 0h-4v-1h4zm-8 0h-4v-1h4zm-8 0h-4.02v-1h4zm-8.02 0h-4v-1h4zm-8 0h-4v-1h4zm-8 0h-4.02v-1h4zm-8.02 0h-4v-1h4zm-8 0h-4v-1h4zm-8 0h-4.02v-1h4zm-8.02 0h-4v-1h4zm-8 0h-4v-1h4zm-8 0h-4.02v-1h4zm-8.02 0h-4v-1h4zm-8 0h-4v-1h4zm-8 0h-4.02v-1h4zm-8.02 0h-4v-1h4zm-8 0h-4v-1h4zm-8 0h-4.02v-1h4zm-8.02 0h-4v-1h4zm-8 0h-4v-1h4zm-8 0h-4.02v-1h4zm-8.02 0h-4v-1h4zm-8 0h-4v-1h4zm-8 0h-4.02v-1h4zm-8.02 0h-4v-1h4zm-8 0h-4v-1h4zm-8 0h-4.02v-1h4zm-8.02 0h-4v-1h4zm-8 0h-4v-1h4zm-8 0h-4.02v-1h4zm-8.02 0h-4v-1h4zm-8 0h-4v-1h4zm-8 0h-4.02v-1h4zm-8.02 0h-4v-1h4zm-8 0h-4v-1h4zm-8 0h-4.02v-1h4zm-8.02 0h-4v-1h4zm-8 0h-4v-1h4zm-8 0h-4.02v-1h4zm-8.02 0h-4v-1h4zm-8 0h-4v-1h4zm-8 0h-4.02v-1h4zm-8.02 0h-4v-1h4zm-8 0h-4v-1h4zm-8 0h-4.02v-1h4zm-8.02 0h-4v-1h4zm-8 0h-4v-1h4zm-8 0h-4.02v-1h4zm-8.02 0h-4v-1h4zm-8 0h-4v-1h4zm-8 0h-4.02v-1h4zm-8.02 0h-4v-1h4zm-8 0h-4v-1h4zm-8 0h-4.02v-1h4zm-8.02 0h-4v-1h4zm-8 0h-4v-1h4zm-8 0h-4.02v-1h4zm-8.02 0h-4v-1h4zm-8 0h-4v-1h4zm-8 0h-4.02v-1h4zm-8.02 0h-4v-1h4zm-8 0h-4v-1h4zm-8 0h-4.02v-1h4zm-8.02 0h-4v-1h4zm-8 0h-4v-1h4zm-8 0h-4.02v-1h4zm-8.02 0h-4v-1h4zm-8 0h-4v-1h4zm-8 0h-4.02v-1h4zm-8.02 0h-4v-1h4zm-8 0h-4v-1h4zm-8 0h-4.02v-1h4zm-8.02 0h-4v-1h4zm-8 0h-4v-1h4zm-8 0h-4.02v-1h4zm-8.02 0h-4v-1h4zm-8 0h-4v-1h4zm-8 0h-4.02v-1h4zm-8.02 0h-4v-1h4zm-8 0h-4v-1h4zm-8.02 0h-4v-1h4zm-8 0h-4v-1h4zm-8 0h-4v-1h4zm-8.02 0h-4v-1h4zm-8 0h-4v-1h4zm-8 0h-4v-1h4zm-8.02 0h-4v-1h4zm-8 0h-4v-1h4zm-8 0h-4v-1h4zm-8.02 0h-4v-1h4zm-8 0h-4v-1h4zm-8 0h-4v-1h4zm-8.02 0h-4v-1h4zm-8 0h-4v-1h4zm-8 0h-4v-1h4zm-8.02 0h-4v-1h4zm-8 0h-4v-1h4zm-8 0h-4v-1h4zm-8.02 0h-4v-1h4zm-8 0h-4v-1h4zm-8 0h-4v-1h4zm-8.02 0h-4v-1h4zm-8 0h-4v-1h4zm-8 0h-4v-1h4zm-8.02 0h-4v-1h4zm-8 0h-4v-1h4zm-8 0h-4v-1h4zm-8.02 0h-4v-1h4zm-112.1 0h-4v-1h4zm-8 0h-4v-1h4zm-8 0h-4v-1h4zm-8 0h-4v-1h4zm-8.02 0h-4v-1h4zm-8 0h-4v-1h4zm-8 0h-4v-1h4zm-8.02 0h-4v-1h4zm-8 0h-4v-1h4zm-8 0h-4v-1h4zm-8.02 0h-4v-1h4zm-8 0h-4v-1h4zm-8 0h-4v-1h4zm-8.02 0h-4v-1h4zm-8 0h-4v-1h4zm-8 0h-4v-1h4zm-8.02 0h-4v-1h4zm-8 0h-4v-1h4zm-8 0H276v-1h4zm-8.02 0h-4v-1h4zm-8 0h-4v-1h4zm-8 0h-4l-.02-1h4z" stroke="#3a414a" stroke-width=".05" fill="#3a414a"/><path d="M1439.5 140v.5h-.5v-1h.52z" fill="#3a414a"/><path d="M1439.53 140v.53h-.57v-1.06h.58zm-.52-.47v.94h.48v-.95z" stroke="#3a414a" stroke-width=".05" fill="#3a414a"/><path d="M240.5 359.5h-1v-.5h1z" fill="#3a414a"/><path d="M240.53 359.54l-.52-.02h-.53v-.56h1.06zm-1-.53v.48h.95v-.47z" stroke="#3a414a" stroke-width=".05" fill="#3a414a"/><use xlink:href="#A" transform="matrix(1,0,0,1,427.44166093270843,129.33333333333334) translate(0 14.222222222222223)"/><path d="M660 460c0 33.14-35.82 60-80 60s-80-26.86-80-60 35.82-60 80-60 80 26.86 80 60z" stroke="#3a414a" fill="#fff"/><use xlink:href="#B" transform="matrix(1,0,0,1,500,400) translate(43.08 40.65)"/><use xlink:href="#C" transform="matrix(1,0,0,1,500,400) translate(43.029999999999994 62.25)"/><use xlink:href="#o" transform="matrix(1,0,0,1,500,400) translate(101.98 62.25)"/><use xlink:href="#D" transform="matrix(1,0,0,1,500,400) translate(22.430000000000003 83.85000000000001)"/><path d="M660 600c0 33.14-35.82 60-80 60s-80-26.86-80-60 35.82-60 80-60 80 26.86 80 60z" stroke="#3a414a" fill="#fff"/><use xlink:href="#B" transform="matrix(1,0,0,1,500,540) translate(43.08 40.65)"/><use xlink:href="#E" transform="matrix(1,0,0,1,500,540) translate(27.62999999999999 62.25)"/><use xlink:href="#F" transform="matrix(1,0,0,1,500,540) translate(90.53 62.25)"/><use xlink:href="#w" transform="matrix(1,0,0,1,500,540) translate(45.405 83.85000000000001)"/><path d="M660 740c0 33.14-35.82 60-80 60s-80-26.86-80-60 35.82-60 80-60 80 26.86 80 60z" stroke="#3a414a" fill="#fff"/><use xlink:href="#G" transform="matrix(1,0,0,1,500,680) translate(28.579999999999995 40.65)"/><use xlink:href="#H" transform="matrix(1,0,0,1,500,680) translate(107.43 40.65)"/><use xlink:href="#I" transform="matrix(1,0,0,1,500,680) translate(19.57999999999999 62.25)"/><use xlink:href="#u" transform="matrix(1,0,0,1,500,680) translate(110.43 62.25)"/><use xlink:href="#J" transform="matrix(1,0,0,1,500,680) translate(37.55499999999999 83.85000000000001)"/><path d="M663 600.5h-2v-1h2zm7.96 0h-4v-1h4zm7.96 0h-3.98v-1h3.98zm7.96 0h-3.98v-1h3.98zm7.97 0h-3.98v-1h3.98zm7.96 0h-3.97v-1h3.98zm7.98 0h-4v-1h4zm7.96 0h-3.98v-1h3.98zm7.97 0h-3.98v-1h4zm7.97 0h-3.98v-1h3.97zm7.96 0h-3.98v-1h3.98zm7.97 0h-3.98v-1h3.98zm7.96 0h-3.98v-1h3.98zm7.97 0h-4v-1h4zm7.96 0h-4v-1h4zm7.96 0h-4v-1h4zm7.96 0h-3.98v-1h3.98zm7.96 0h-3.98v-1h3.98zm7.97 0h-3.98v-1h3.98zm4.54 0h-.57v-1h.56zm79.6-11.75h-1v-3.5h1zm0-7h-1v-3.5h1zm0-7h-1v-3.5h1zm.44-10.85l-.17.4-.2.84-.07.88v1.73h-1v-1.77l.08-1 .24-1 .2-.46zm7.05-3.4H896l-.88.07-.84.2-.4.17-.38-.93.47-.18.98-.24 1-.08h2zm7.96 0h-4v-1h4zm7.96 0h-3.98v-1h3.98zm7.96 0h-3.98v-1h3.98zm7.97 0h-3.98v-1h3.98zm7.96 0h-3.97v-1h3.98zm7.98 0h-4v-1h4zm7.96 0h-3.98v-1h3.98zm7.97 0h-3.98v-1h4zm7.97 0h-3.98v-1h3.97zm7.96 0h-3.98v-1h3.98zm7.97 0h-3.98v-1h3.98zm7.96 0h-3.98v-1h3.98zm7.97 0h-4v-1h4zm7.96 0h-4v-1h4zm7.96 0h-4v-1h4zm7.96 0h-3.98v-1h3.98zm7.96 0h-3.98v-1h3.98zm7.97 0h-3.98v-1h3.98zm7.96 0h-3.97v-1h3.98zm7.98 0h-3.98v-1h3.98zm7.96 0h-3.98v-1h3.98zm7.96 0h-3.98v-1h3.98zm7.97 0h-3.98v-1h3.97zm7.96 0h-3.98v-1h3.98zm7.97 0h-3.98v-1h3.98zm7.96 0h-3.98v-1h3.98zm7.97 0h-3.98v-1h3.98zm5.97 0h-2v-1h2z" stroke="#3a414a" stroke-width=".05" fill="#3a414a"/><path d="M661 600.5h-.5v-1h.5z" fill="#3a414a"/><path d="M661.04 600.52h-.58v-1.04h.58zm-.52-1v.96h.47v-.96z" stroke="#3a414a" stroke-width=".05" fill="#3a414a"/><path d="M1119.5 560v.5h-.5v-1h.52z" fill="#3a414a"/><path d="M1119.53 560v.53h-.57v-1.05h.58zm-.52-.48v.96h.48v-.96z" stroke="#3a414a" stroke-width=".05" fill="#3a414a"/><use xlink:href="#A" transform="matrix(1,0,0,1,810.8888888888889,589.3333333333334) translate(0 14.222222222222223)"/><path d="M812.48 460.5h-2.15v-1h2.15zm-6.13 0h-3.98v-1h3.98zm-7.97 0h-3.98v-1h3.98zm-7.96 0h-3.98v-1h3.98zm-7.96 0h-4v-1h4zm-7.97 0h-4v-1h4zm-7.97 0h-4v-1h4zm-7.97 0h-3.98v-1h3.98zm-7.96 0h-3.98v-1h3.98zm-7.97 0h-3.98v-1h3.98zm-7.96 0h-3.98v-1h3.97zm-7.96 0h-3.98v-1h4zm-7.96 0h-3.98v-1h3.98zm-7.96 0h-4v-1h4zm-7.97 0h-3.97v-1h3.98zm-7.95 0h-3.98v-1h3.98zm-7.97 0h-3.98v-1h3.98zm-7.96 0h-3.98v-1h3.98zm-7.96 0h-4v-1h4zm-7.97 0h-2v-1h2zm227.5-11.75h-1v-3.5h1zm0-7h-1v-3.5h1zm0-7h-1v-3.5h1zm.44-10.85l-.17.4-.2.84-.07.88v1.73h-1v-1.77l.08-1 .24-1 .2-.46zm7.05-3.4H896l-.88.07-.84.2-.4.17-.38-.93.47-.18.98-.24 1-.08h2zm221 0h-2v-1h2zm-5.97 0h-3.98v-1h3.98zm-7.97 0h-3.98v-1h3.98zm-7.96 0h-3.98v-1h3.98zm-7.97 0h-3.98v-1h3.98zm-7.96 0h-3.98v-1h3.97zm-7.97 0h-3.98v-1h3.98zm-7.96 0h-3.98v-1h3.98zm-7.96 0h-3.98v-1h3.98zm-7.97 0h-3.97v-1h3.98zm-7.95 0h-3.98v-1h3.98zm-7.97 0h-3.98v-1h3.98zm-7.96 0h-3.98v-1h3.98zm-7.97 0h-3.98v-1h4zm-7.96 0h-4v-1h4zm-7.97 0h-4v-1h4zm-7.97 0h-3.98v-1h3.98zm-7.96 0h-3.98v-1h3.98zm-7.97 0h-3.98v-1h3.98zm-7.96 0h-3.98v-1h3.97zm-7.96 0h-3.98v-1h4zm-7.96 0h-3.98v-1h3.98zm-7.96 0h-4v-1h4zm-7.97 0h-3.97v-1h3.98zm-7.95 0h-3.98v-1h3.98zm-7.97 0h-3.98v-1h3.98zm-7.96 0h-3.98v-1h3.98zm-7.96 0h-4v-1h4z" stroke="#3a414a" stroke-width=".05" fill="#3a414a"/><path d="M1119.5 420v.5h-.5v-1h.52z" fill="#3a414a"/><path d="M1119.53 420v.53h-.57v-1.05h.58zm-.52-.48v.96h.48v-.96z" stroke="#3a414a" stroke-width=".05" fill="#3a414a"/><path d="M661 460.5h-.5v-1h.5z" fill="#3a414a"/><path d="M661.04 460.52h-.58v-1.04h.58zm-.52-1v.96h.47v-.96z" stroke="#3a414a" stroke-width=".05" fill="#3a414a"/><use xlink:href="#A" transform="matrix(1,0,0,1,812.4805563461878,449.3333333333333) translate(0 14.222222222222223)"/><path d="M499 460h-53a6 6 0 0 1-6-6v-28a6 6 0 0 0-6-6H321" stroke="#3a414a" fill="none"/><path d="M499.5 460v.5h-.5v-1h.5zM321 420.5h-.5v-1h.5z" stroke="#3a414a" stroke-width=".05" fill="#3a414a"/><path d="M321 420h113a6 6 0 0 1 6 6v168a6 6 0 0 0 6 6h53" stroke="#3a414a" fill="none"/><path d="M321 420.5h-.5v-1h.5zM499.5 600v.5h-.5v-1h.5z" stroke="#3a414a" stroke-width=".05" fill="#3a414a"/><path d="M499 740h-53a6 6 0 0 1-6-6V426a6 6 0 0 0-6-6H321" stroke="#3a414a" fill="none"/><path d="M499.5 740v.5h-.5v-1h.5zM321 420.5h-.5v-1h.5z" stroke="#3a414a" stroke-width=".05" fill="#3a414a"/><path d="M660 980c0 33.14-35.82 60-80 60s-80-26.86-80-60 35.82-60 80-60 80 26.86 80 60z" stroke="#3a414a" fill="#fff"/><use xlink:href="#B" transform="matrix(1,0,0,1,500,920) translate(43.08 40.65)"/><use xlink:href="#K" transform="matrix(1,0,0,1,500,920) translate(30.529999999999994 62.25)"/><use xlink:href="#L" transform="matrix(1,0,0,1,500,920) translate(54.004999999999995 83.85000000000001)"/><path d="M660 1120c0 33.14-35.82 60-80 60s-80-26.86-80-60 35.82-60 80-60 80 26.86 80 60z" stroke="#3a414a" fill="#fff"/><g><use xlink:href="#G" transform="matrix(1,0,0,1,500,1060) translate(24.129999999999992 40.65)"/><use xlink:href="#M" transform="matrix(1,0,0,1,500,1060) translate(102.98 40.65)"/><use xlink:href="#C" transform="matrix(1,0,0,1,500,1060) translate(43.029999999999994 62.25)"/><use xlink:href="#o" transform="matrix(1,0,0,1,500,1060) translate(101.98 62.25)"/><use xlink:href="#D" transform="matrix(1,0,0,1,500,1060) translate(22.430000000000003 83.85000000000001)"/></g><path d="M1376.48 980l-.47.18-.98.24-1 .08H1372v-1h1.98l.88-.07.84-.2.4-.17zm-8.5.5h-4v-1h4zm-8 0h-4v-1h4zm-8 0h-4.02v-1h4zm-8.02 0h-4v-1h4zm-8 0h-4.02v-1h4zm-8.03 0h-4v-1h4zm-8 0h-4v-1h4zm-8.02 0h-4v-1h4zm-8 0h-4v-1h4zm-8 0h-4.02v-1h4zm-8.02 0h-4v-1h4zm-8 0h-4.02v-1h4zm-8.02 0h-4v-1h4zm-8 0h-4.02v-1h4zm-8.03 0h-4v-1h4zm-8 0h-4v-1h4zm-8.02 0h-4v-1h4zm-8 0h-4v-1h4zm-8 0h-4.02v-1h4zm-8.02 0h-4v-1h4zm-8 0h-4.02v-1h4zm-8.02 0h-4v-1h4zm-8.02 0h-4v-1h4zm-8 0h-4v-1h4zm-8.02 0h-4v-1h4zm-8 0h-4.02v-1h4zm-8.02 0h-4v-1h4zm-8 0h-4.02v-1h4zm-8.02 0h-4v-1h4zm-8 0h-4.02v-1h4zm-8.03 0h-4v-1h4zm-8 0h-4v-1h4zm-108.02 0h-.14v-1h.13zm-4.14 0h-4.02v-1h4zm-8.02 0h-4v-1h4zm-8.02 0h-4v-1h4zm-8 0h-4v-1h4zm-8.02 0h-4v-1h4zm-8 0h-4.02v-1h4zm-8.02 0h-4v-1h4zm-8 0h-4.02v-1h4zm-8.02 0h-4v-1h4zm-8 0h-4.02v-1h4zm-8.03 0h-4v-1h4zm-8 0h-4v-1h4zm-8.02 0h-4v-1h4zm-8 0h-4.02v-1h4zm-8.02 0h-4v-1h4zm-8 0h-4.02v-1h4.02zm-8.02 0h-4v-1h4zm-8 0h-4v-1h4zm-8.02 0h-4v-1h4zm-8 0h-4v-1h4zm-8.02 0h-4v-1h4zm-8 0h-4.02v-1h4zm-8.02 0h-4v-1h4zm-8 0h-4.02v-1h4zm-8.02 0h-4v-1h4zm-8 0h-4.02v-1h4zm-8.03 0h-4v-1h4zm-8.02 0h-4v-1h4zm-8 0h-4v-1h4zm-8.02 0h-4v-1h4zm-8 0h-4.02v-1h4zm-8.02 0h-4v-1h4zm-8 0h-4.02v-1h4zm-8.02 0h-4v-1h4zm-8.02 0h-4v-1h4zm-8 0h-4v-1h4zm-8.02 0h-4v-1h4zm-8 0h-4v-1h4zm-8.02 0h-4v-1h4zm-8 0h-4.02v-1h4zm-8.02 0h-4v-1h4zm-8 0H675v-1h4zm-8.03 0h-4v-1h4zm-8 0h-2v-1h2zm717.5-6.48l-.08 1-.24 1-.2.46-.92-.38.17-.4.2-.84.07-.88V972h1zm0-6.03h-1v-4.02h1zm0-8.02h-1v-4h1zm0-8h-1v-4.02h1zm0-8.03h-1v-4h1zm0-8h-1v-4.02h1zm0-8.02h-1v-4h1zm0-8h-1v-4.02h1zm0-8.03h-1v-4h1zm0-8h-1v-4.02h1zm0-8.02h-1v-4h1zm0-8.02h-1v-4h1zm0-8h-1v-4h1zm0-8.02h-1v-4h1zm0-8h-1v-4.02h1zm0-8.03h-1v-4h1zm0-8h-1v-4h1zm0-8h-1v-4.02h1zm0-8.02h-1v-4h1zm0-8.02h-1v-4h1zm0-8h-1v-4.02h1zm0-8.02h-1v-4h1zm0-8h-1v-4.02h1zm0-8.03h-1v-4h1zm0-8h-1v-4h1zm0-8h-1v-4.02h1zm0-8.03h-1v-4h1zm0-8h-1v-4h1zm0-8.02h-1v-4h1zm0-8h-1v-4.02h1zm0-8.03h-1v-4h1zm0-8h-1v-4.02h1zm0-8.02h-1v-4h1zm0-8h-1v-4.02h1zm0-8.03h-1v-4h1zm0-8h-1v-4.02h1zm0-8.02h-1v-4h1zm0-8h-1v-4.02h1zm0-8.03h-1v-4h1zm0-8h-1v-4.02h1zm0-8.02h-1v-4h1zm0-8.02h-1v-4h1zm0-8h-1v-4h1zm0-8.02h-1v-4h1zm0-8h-1v-4.02h1zm0-8.03h-1v-4h1zm0-8h-1v-4h1zm0-8.02h-1v-4h1zm0-8h-1v-4h1zm0-8.02h-1v-4h1zm0-8h-1v-4.02h1zm0-8.02h-1v-4h1zm0-8h-1v-4.02h1zm0-8.03h-1v-4h1zm0-8h-1v-4.02h1zm0-8.02h-1v-4h1zm0-8h-1v-4h1zm0-8.02h-1v-4h1zm0-8h-1v-4.02h1zm0-8.02h-1v-4h1zm0-8.02h-1v-4h1zm0-8h-1v-4h1zm0-8.02h-1v-4h1zm0-8h-1v-4.02h1zm0-8.03h-1v-4h1zm0-8.02h-1v-4h1zm0-8h-1v-4.02h1zm0-8.03h-1v-4h1zm0-8h-1v-4h1zm0-8.02h-1v-4h1zm0-8h-1v-4.02h1zm0-8.03h-1v-4h1zm0-8h-1v-4.02h1zm0-8.02h-1v-4h1zm0-8h-1v-4.02h1zm0-8.03h-1v-4h1zm0-8h-1v-4h1zm0-8.02h-1v-4h1zm0-8h-1V347h1zm0-8.03h-1v-2h1z" stroke="#3a414a" stroke-width=".05" fill="#3a414a"/><path d="M1380 340.5h.5v.5h-1v-.5z" fill="#3a414a"/><path d="M1380 340.48h.53v.56h-1.06v-.58zm-.47.5h.94v-.46h-.95z" stroke="#3a414a" stroke-width=".05" fill="#3a414a"/><path d="M661 980.5h-.5v-1h.5z" fill="#3a414a"/><path d="M661.04 980.52h-.58v-1.04h.58zm-.52-1v.96h.47v-.96z" stroke="#3a414a" stroke-width=".05" fill="#3a414a"/><g><use xlink:href="#A" transform="matrix(1,0,0,1,1011.6261381286781,969.3333333333334) translate(0 14.222222222222223)"/></g><path d="M1036.48 1120l-.47.18-.98.24-1 .08h-2v-1h1.96l.88-.07.84-.2.4-.17zm-8.43.5h-3.97v-1h3.97zm-7.94 0h-3.96v-1h3.97zm-7.92 0h-3.97v-1h3.98zm-7.94 0h-3.97v-1h3.97zm-7.94 0h-3.96v-1h3.96zm-7.93 0h-3.97v-1h3.97zm-7.94 0h-3.97v-1h3.97zm-7.93 0h-3.97v-1h3.97zm-7.94 0h-3.97v-1h3.96zm-7.94 0h-3.97v-1h3.97zm-7.93 0h-3.98v-1h3.97zm-7.95 0h-3.97v-1h3.97zm-7.94 0h-3.95v-1h3.96zm-7.92 0h-3.97v-1h3.98zm-7.94 0h-3.97v-1h3.97zm-7.94 0h-3.96v-1H909zm-7.93 0h-3.97v-1h3.97zm-7.94 0h-3.97v-1h3.97zm-7.93 0h-3.97v-1h3.97zm-7.94 0h-3.97v-1h3.96zm-7.94 0h-3.96v-1h3.96zm-7.93 0h-3.98v-1h3.97zm-7.95 0h-3.97v-1h3.97zm-7.93 0h-3.97v-1h3.97zm-7.94 0h-3.97v-1h3.98zm-7.94 0h-3.96v-1h3.96zm-7.93 0h-3.96v-1h3.97zm-7.93 0h-3.97v-1h3.97zm-7.93 0h-3.97v-1h3.97zm-7.94 0h-3.97v-1h3.97zm-7.94 0H786v-1h3.96zm-7.93 0h-3.97v-1h3.97zm-7.94 0h-3.98v-1h3.97zm-7.95 0h-3.96v-1h3.95zm-7.93 0h-3.97v-1h3.97zm-7.94 0h-3.97v-1h3.98zm-7.93 0h-3.97v-1h3.97zm-7.94 0h-3.96v-1h3.97zm-7.93 0h-3.97v-1h3.97zm-7.93 0h-3.97v-1h3.97zm-7.94 0h-3.97v-1h3.97zm-7.94 0h-3.96v-1h3.96zm-7.93 0h-3.97v-1h3.97zm-7.94 0h-3.98v-1h3.97zm-7.94 0h-3.97v-1h3.96zm-7.94 0h-3.97v-1h3.97zm-7.94 0H661v-1h1.98zm377.52-6.48l-.08 1-.24 1-.2.46-.92-.38.17-.4.2-.84.07-.88V1112h1zm0-6.02h-1v-4h1zm0-8h-1v-4h1zm0-8h-1v-4h1zm0-8h-1v-4h1zm0-8h-1v-4h1zm0-8h-1v-4h1zm0-8h-1v-4h1zm0-8h-1v-4h1zm0-8h-1v-4h1zm0-8h-1v-4h1zm0-8h-1v-4h1zm0-8h-1v-4h1zm0-8h-1v-4h1zm0-8h-1v-4h1zm0-8h-1v-4h1zm0-26.67h-1V968h1zm0-5.33h-1v-4h1zm0-8h-1v-4h1zm0-8h-1v-4h1zm0-8h-1v-4h1zm0-8h-1v-4h1zm0-8h-1v-4h1zm0-8h-1v-4h1zm0-8h-1v-4h1zm0-8h-1v-4h1zm0-8h-1v-4h1zm0-8h-1v-4h1zm0-8h-1v-4h1zm0-8h-1v-4h1zm0-8h-1v-4h1zm0-8h-1v-4h1zm0-8h-1v-3.33h1zm0-24.67h-1V816h1zm0-7.33h-1v-4h1zm0-8h-1v-4h1zm0-8h-1v-4h1zm0-8h-1v-4h1zm0-8h-1v-4h1zm0-8h-1v-4h1zm0-8h-1v-4h1zm0-8h-1v-4h1zm0-8h-1v-4h1zm0-8h-1v-4h1zm0-8h-1v-4h1zm0-8h-1v-4h1zm0-8h-1v-4h1zm0-8h-1v-4h1zm0-8h-1v-4h1zm0-8h-1v-4h1zm0-8h-1v-4h1zm0-8h-1v-4h1zm0-8h-1v-4h1zm0-8h-1v-4h1zm0-8h-1v-4h1zm0-8h-1v-4h1zm0-8h-1v-4h1zm0-8h-1v-4h1zm0-8h-1v-4h1zm0-8h-1v-4h1zm0-8h-1v-4h1zm0-8h-1v-4h1zm0-8h-1v-4h1zm0-8h-1v-4h1zm0-8h-1v-4h1zm0-8h-1v-4h1zm0-8h-1v-4h1zm0-8h-1v-4h1zm0-8h-1v-4h1zm0-8h-1v-4h1zm0-8h-1v-4h1zm0-8h-1v-4h1zm0-8h-1v-4h1zm0-8h-1v-4h1zm0-8h-1v-4h1zm0-8h-1v-4h1zm0-8h-1v-4h1zm0-8h-1v-4h1zm0-8h-1v-4h1zm0-8h-1v-4h1zm0-8h-1v-4h1zm0-8h-1v-4h1zm.44-12.1l-.17.4-.2.84-.07.88V428h-1v-2.02l.08-1 .24-1 .2-.46zm7.1-3.4H1046l-.88.07-.84.2-.4.17-.38-.93.47-.18.98-.24 1-.08h2.05zm70.96 0h-2.03v-1h2.03zm-6.08 0h-4.06v-1h4.06zm-8.1 0h-4.07v-1h4.06zm-8.13 0h-4.06v-1h4.05zm-8.12 0h-4.05v-1h4.05zm-8.1 0h-4.06v-1h4.05zm-8.12 0h-4.05v-1h4.06zm-8.1 0h-4.07v-1h4.05zm-8.12 0h-4.06v-1h4.06z" stroke="#3a414a" stroke-width=".05" fill="#3a414a"/><path d="M1119.5 420v.5h-.5v-1h.52z" fill="#3a414a"/><path d="M1119.53 420v.53h-.57v-1.05h.58zm-.52-.48v.96h.48v-.96z" stroke="#3a414a" stroke-width=".05" fill="#3a414a"/><path d="M661 1120.5h-.5v-1h.5z" fill="#3a414a"/><path d="M661.04 1120.53h-.58v-1.05h.58zm-.52-1v.95h.47v-.94z" stroke="#3a414a" stroke-width=".05" fill="#3a414a"/><g><use xlink:href="#A" transform="matrix(1,0,0,1,988.2222222222222,819.3333333333336) translate(0 14.222222222222223)"/></g><path d="M321 560h43a6 6 0 0 1 6 6v408a6 6 0 0 0 6 6h123" stroke="#3a414a" fill="none"/><path d="M321 560.5h-.5v-1h.5zM499.5 980v.5h-.5v-1h.5z" stroke="#3a414a" stroke-width=".05" fill="#3a414a"/><path d="M499 1120H376a6 6 0 0 1-6-6V566a6 6 0 0 0-6-6h-43" stroke="#3a414a" fill="none"/><path d="M499.5 1120v.5h-.5v-1h.5zM321 560.5h-.5v-1h.5zM1376.48 740l-.47.18-.98.24-1 .08H1372v-1h1.98l.88-.07.84-.2.4-.17zm-8.5.5h-4v-1h4zm-8 0h-4v-1h4zm-8 0h-4.02v-1h4zm-8.02 0h-4v-1h4zm-8 0h-4.02v-1h4zm-8.03 0h-4v-1h4zm-8 0h-4v-1h4zm-8.02 0h-4v-1h4zm-8 0h-4v-1h4zm-8 0h-4.02v-1h4zm-8.02 0h-4v-1h4zm-8 0h-4.02v-1h4zm-8.02 0h-4v-1h4zm-8 0h-4.02v-1h4zm-8.03 0h-4v-1h4zm-8 0h-4v-1h4zm-8.02 0h-4v-1h4zm-8 0h-4v-1h4zm-8 0h-4.02v-1h4zm-8.02 0h-4v-1h4zm-8 0h-4.02v-1h4zm-8.02 0h-4v-1h4zm-8.02 0h-4v-1h4zm-8 0h-4v-1h4zm-8.02 0h-4v-1h4zm-8 0h-4.02v-1h4zm-8.02 0h-4v-1h4zm-8 0h-4.02v-1h4zm-8.02 0h-4v-1h4zm-8 0h-4.02v-1h4zm-8.03 0h-4v-1h4zm-8 0h-4v-1h4zm-8.02 0h-4v-1h4zm-8 0h-4.02l.02-1h4zm-8.02 0h-4v-1h4zm-8 0h-4v-1h4zm-8 0h-4.02v-1h4zm-8.02 0h-4v-1h4zm-8 0h-4.02v-1h4zm-8.03 0h-4v-1h4zm-8 0h-4v-1h4zm-8.02 0h-4v-1h4zm-8 0h-4.02v-1h4.02zm-8.02 0h-4v-1h4zm-8 0h-4v-1h4zm-8 0h-4.02v-1h4zm-8.02 0h-4v-1h4zm-8.02 0h-4v-1h4zm-8 0h-4v-1h4zm-8.02 0h-4v-1h4zm-8 0h-4.02v-1h4zm-8.02 0h-4v-1h4zm-8 0h-4.02v-1h4zm-8.02 0h-4v-1h4zm-112.16 0h-4v-1h4zm-8 0h-4.02v-1h4zm-8.02 0h-4v-1h4zm-8 0h-4.02v-1h4zm-8.03 0h-4v-1h4zm-8.02 0h-4v-1h4zm-8 0h-4v-1h4zm-8.02 0h-4v-1h4zm-8 0h-4.02v-1h4zm-8.02 0h-4v-1h4zm-8 0h-4.02v-1h4zm-8.02 0h-4v-1h4zm-8.02 0h-4v-1h4zm-8 0h-4v-1h4zm-8.02 0h-4v-1h4zm-8 0h-4v-1h4zm-8.02 0h-4v-1h4zm-8 0h-4.02v-1h4zm-8.02 0h-4v-1h4zm-8 0H675v-1h4zm-8.03 0h-4v-1h4zm-8 0h-2v-1h2zm717.5-6.48l-.08 1-.24 1-.2.46-.92-.38.17-.4.2-.84.07-.88v-2h1zm0-6.03h-1v-4.03h1zm0-8.04h-1v-4h1zm0-8.02h-1v-4h1zm0-8.02h-1v-4h1zm0-8.02h-1v-4h1zm0-8.02h-1v-4h1zm0-8.02h-1v-4h1zm0-8.02h-1v-4h1zm0-8.02h-1v-4h1zm0-8.02h-1v-4h1zm0-8.02h-1v-4h1zm0-8.02h-1v-4h1zm0-8.02h-1v-4h1zm0-8.02h-1v-4h1zm0-8.02h-1v-4h1zm0-8.02h-1v-4h1zm0-8.02h-1v-4h1zm0-8.02h-1v-4h1zm0-8.02h-1v-4h1zm0-8.02h-1v-4h1zm0-8.02h-1v-4h1zm0-8.02h-1v-4h1zm0-8.02h-1v-4h1zm0-8.02h-1v-4h1zm0-8.02h-1v-4h1zm0-8.03h-1v-4h1zm0-8.02h-1v-4h1zm0-8.02h-1v-4h1zm0-8.02h-1v-4h1zm0-8h-1v-4.02h1zm0-8.03h-1v-4h1zm0-8.02h-1v-4h1zm0-8.02h-1v-4h1zm0-8.02h-1v-4h1zm0-8h-1v-4.02h1zm0-8.03h-1v-4h1zm0-8.02h-1v-4h1zm0-8.02h-1v-4h1zm0-8.02h-1v-4h1zm0-8h-1v-4.02h1zm0-8.03h-1v-4h1zm0-8.02h-1v-4h1zm0-8.02h-1v-4h1zm0-8.02h-1v-4h1zm0-8h-1v-4.02h1zm0-8.03h-1v-4h1zm0-8.02h-1v-4h1zm0-8.02h-1v-4h1zm0-8.02h-1v-2h1z" stroke="#3a414a" stroke-width=".05" fill="#3a414a"/><path d="M1380 340.5h.5v.5h-1v-.5z" fill="#3a414a"/><path d="M1380 340.48h.53v.56h-1.06v-.58zm-.47.5h.94v-.46h-.95z" stroke="#3a414a" stroke-width=".05" fill="#3a414a"/><path d="M661 740.5h-.5v-1h.5z" fill="#3a414a"/><path d="M661.04 740.52h-.58v-1.04h.58zm-.52-1v.96h.47v-.96z" stroke="#3a414a" stroke-width=".05" fill="#3a414a"/><g><use xlink:href="#A" transform="matrix(1,0,0,1,832.227490046258,729.3333333333334) translate(0 14.222222222222223)"/></g><path d="M1600 140c0 33.14-35.82 60-80 60s-80-26.86-80-60 35.82-60 80-60 80 26.86 80 60z" stroke="#3a414a" fill="#fff"/><g><use xlink:href="#N" transform="matrix(1,0,0,1,1440,80) translate(33.12999999999999 51.9)"/><use xlink:href="#O" transform="matrix(1,0,0,1,1440,80) translate(54.055 73.5)"/></g><path d="M1601 140h33.25a6 6 0 0 1 6 6v338a6 6 0 0 0 6 6h33.25" stroke="#3a414a" fill="none"/><path d="M1601 140.5h-.52l.02-.5v-.5h.5zM1683 490.5h-3.5v-1h3.5z" stroke="#3a414a" stroke-width=".05" fill="#3a414a"/><defs><path fill="#3a414a" d="M30-248c118-7 216 8 213 122C240-48 200 0 122 0H30v-248zM63-27c89 8 146-16 146-99s-60-101-146-95v194" id="P"/><path fill="#3a414a" d="M24-231v-30h32v30H24zM24 0v-190h32V0H24" id="Q"/><path fill="#3a414a" d="M101-234c-31-9-42 10-38 44h38v23H63V0H32v-167H5v-23h27c-7-52 17-82 69-68v24" id="R"/><path fill="#3a414a" d="M100-194c63 0 86 42 84 106H49c0 40 14 67 53 68 26 1 43-12 49-29l28 8c-11 28-37 45-77 45C44 4 14-33 15-96c1-61 26-98 85-98zm52 81c6-60-76-77-97-28-3 7-6 17-6 28h103" id="S"/><path fill="#3a414a" d="M114-163C36-179 61-72 57 0H25l-1-190h30c1 12-1 29 2 39 6-27 23-49 58-41v29" id="T"/><path fill="#3a414a" d="M117-194c89-4 53 116 60 194h-32v-121c0-31-8-49-39-48C34-167 62-67 57 0H25l-1-190h30c1 10-1 24 2 32 11-22 29-35 61-36" id="U"/><path fill="#3a414a" d="M59-47c-2 24 18 29 38 22v24C64 9 27 4 27-40v-127H5v-23h24l9-43h21v43h35v23H59v120" id="V"/><g id="a"><use transform="matrix(0.06172839506172839,0,0,0.06172839506172839,0,0)" xlink:href="#P"/><use transform="matrix(0.06172839506172839,0,0,0.06172839506172839,15.987654320987653,0)" xlink:href="#Q"/><use transform="matrix(0.06172839506172839,0,0,0.06172839506172839,20.864197530864196,0)" xlink:href="#R"/><use transform="matrix(0.06172839506172839,0,0,0.06172839506172839,26.604938271604937,0)" xlink:href="#R"/><use transform="matrix(0.06172839506172839,0,0,0.06172839506172839,32.77777777777778,0)" xlink:href="#S"/><use transform="matrix(0.06172839506172839,0,0,0.06172839506172839,45.123456790123456,0)" xlink:href="#T"/><use transform="matrix(0.06172839506172839,0,0,0.06172839506172839,52.46913580246913,0)" xlink:href="#S"/><use transform="matrix(0.06172839506172839,0,0,0.06172839506172839,64.81481481481481,0)" xlink:href="#U"/><use transform="matrix(0.06172839506172839,0,0,0.06172839506172839,77.1604938271605,0)" xlink:href="#V"/></g><path fill="#3a414a" d="M137-103V0h-34v-103L8-248h37l75 118 75-118h37" id="W"/><path fill="#3a414a" d="M141-36C126-15 110 5 73 4 37 3 15-17 15-53c-1-64 63-63 125-63 3-35-9-54-41-54-24 1-41 7-42 31l-33-3c5-37 33-52 76-52 45 0 72 20 72 64v82c-1 20 7 32 28 27v20c-31 9-61-2-59-35zM48-53c0 20 12 33 32 33 41-3 63-29 60-74-43 2-92-5-92 41" id="X"/><path fill="#3a414a" d="M135-143c-3-34-86-38-87 0 15 53 115 12 119 90S17 21 10-45l28-5c4 36 97 45 98 0-10-56-113-15-118-90-4-57 82-63 122-42 12 7 21 19 24 35" id="Y"/><g id="b"><use transform="matrix(0.06172839506172839,0,0,0.06172839506172839,0,0)" xlink:href="#W"/><use transform="matrix(0.06172839506172839,0,0,0.06172839506172839,12.777777777777777,0)" xlink:href="#S"/><use transform="matrix(0.06172839506172839,0,0,0.06172839506172839,25.123456790123456,0)" xlink:href="#X"/><use transform="matrix(0.06172839506172839,0,0,0.06172839506172839,37.46913580246913,0)" xlink:href="#T"/><use transform="matrix(0.06172839506172839,0,0,0.06172839506172839,44.81481481481481,0)" xlink:href="#Y"/></g><path fill="#3a414a" d="M30-248c87 1 191-15 191 75 0 78-77 80-158 76V0H30v-248zm33 125c57 0 124 11 124-50 0-59-68-47-124-48v98" id="Z"/><path fill="#3a414a" d="M16-82v-28h88v28H16" id="aa"/><path fill="#3a414a" d="M240 0l2-218c-23 76-54 145-80 218h-23L58-218 59 0H30v-248h44l77 211c21-75 51-140 76-211h43V0h-30" id="ab"/><path fill="#3a414a" d="M84 4C-5 8 30-112 23-190h32v120c0 31 7 50 39 49 72-2 45-101 50-169h31l1 190h-30c-1-10 1-25-2-33-11 22-28 36-60 37" id="ac"/><path fill="#3a414a" d="M96-169c-40 0-48 33-48 73s9 75 48 75c24 0 41-14 43-38l32 2c-6 37-31 61-74 61-59 0-76-41-82-99-10-93 101-131 147-64 4 7 5 14 7 22l-32 3c-4-21-16-35-41-35" id="ad"/><path fill="#3a414a" d="M115-194c55 1 70 41 70 98S169 2 115 4C84 4 66-9 55-30l1 105H24l-1-265h31l2 30c10-21 28-34 59-34zm-8 174c40 0 45-34 45-75s-6-73-45-74c-42 0-51 32-51 76 0 43 10 73 51 73" id="ae"/><path fill="#3a414a" d="M24 0v-261h32V0H24" id="af"/><path fill="#3a414a" d="M179-190L93 31C79 59 56 82 12 73V49c39 6 53-20 64-50L1-190h34L92-34l54-156h33" id="ag"/><g id="c"><use transform="matrix(0.06172839506172839,0,0,0.06172839506172839,0,0)" xlink:href="#Z"/><use transform="matrix(0.06172839506172839,0,0,0.06172839506172839,14.814814814814813,0)" xlink:href="#S"/><use transform="matrix(0.06172839506172839,0,0,0.06172839506172839,27.160493827160494,0)" xlink:href="#T"/><use transform="matrix(0.06172839506172839,0,0,0.06172839506172839,34.50617283950617,0)" xlink:href="#aa"/><use transform="matrix(0.06172839506172839,0,0,0.06172839506172839,41.85185185185185,0)" xlink:href="#ab"/><use transform="matrix(0.06172839506172839,0,0,0.06172839506172839,60.30864197530863,0)" xlink:href="#ac"/><use transform="matrix(0.06172839506172839,0,0,0.06172839506172839,72.65432098765432,0)" xlink:href="#U"/><use transform="matrix(0.06172839506172839,0,0,0.06172839506172839,85,0)" xlink:href="#Q"/><use transform="matrix(0.06172839506172839,0,0,0.06172839506172839,89.87654320987654,0)" xlink:href="#ad"/><use transform="matrix(0.06172839506172839,0,0,0.06172839506172839,100.98765432098766,0)" xlink:href="#Q"/><use transform="matrix(0.06172839506172839,0,0,0.06172839506172839,105.8641975308642,0)" xlink:href="#ae"/><use transform="matrix(0.06172839506172839,0,0,0.06172839506172839,118.20987654320989,0)" xlink:href="#X"/><use transform="matrix(0.06172839506172839,0,0,0.06172839506172839,130.55555555555557,0)" xlink:href="#af"/><use transform="matrix(0.06172839506172839,0,0,0.06172839506172839,135.4320987654321,0)" xlink:href="#Q"/><use transform="matrix(0.06172839506172839,0,0,0.06172839506172839,140.30864197530863,0)" xlink:href="#V"/><use transform="matrix(0.06172839506172839,0,0,0.06172839506172839,146.48148148148147,0)" xlink:href="#ag"/></g><path fill="#3a414a" d="M212-179c-10-28-35-45-73-45-59 0-87 40-87 99 0 60 29 101 89 101 43 0 62-24 78-52l27 14C228-24 195 4 139 4 59 4 22-46 18-125c-6-104 99-153 187-111 19 9 31 26 39 46" id="ah"/><path fill="#3a414a" d="M100-194c62-1 85 37 85 99 1 63-27 99-86 99S16-35 15-95c0-66 28-99 85-99zM99-20c44 1 53-31 53-75 0-43-8-75-51-75s-53 32-53 75 10 74 51 75" id="ai"/><path fill="#3a414a" d="M210-169c-67 3-38 105-44 169h-31v-121c0-29-5-50-35-48C34-165 62-65 56 0H25l-1-190h30c1 10-1 24 2 32 10-44 99-50 107 0 11-21 27-35 58-36 85-2 47 119 55 194h-31v-121c0-29-5-49-35-48" id="aj"/><g id="d"><use transform="matrix(0.06172839506172839,0,0,0.06172839506172839,0,0)" xlink:href="#ah"/><use transform="matrix(0.06172839506172839,0,0,0.06172839506172839,15.987654320987653,0)" xlink:href="#ai"/><use transform="matrix(0.06172839506172839,0,0,0.06172839506172839,28.333333333333332,0)" xlink:href="#aj"/><use transform="matrix(0.06172839506172839,0,0,0.06172839506172839,46.79012345679012,0)" xlink:href="#ae"/><use transform="matrix(0.06172839506172839,0,0,0.06172839506172839,59.1358024691358,0)" xlink:href="#X"/><use transform="matrix(0.06172839506172839,0,0,0.06172839506172839,71.48148148148148,0)" xlink:href="#T"/><use transform="matrix(0.06172839506172839,0,0,0.06172839506172839,78.82716049382717,0)" xlink:href="#Q"/><use transform="matrix(0.06172839506172839,0,0,0.06172839506172839,83.70370370370371,0)" xlink:href="#Y"/><use transform="matrix(0.06172839506172839,0,0,0.06172839506172839,94.81481481481482,0)" xlink:href="#ai"/><use transform="matrix(0.06172839506172839,0,0,0.06172839506172839,107.16049382716051,0)" xlink:href="#U"/></g><path fill="#3a414a" d="M185-189c-5-48-123-54-124 2 14 75 158 14 163 119 3 78-121 87-175 55-17-10-28-26-33-46l33-7c5 56 141 63 141-1 0-78-155-14-162-118-5-82 145-84 179-34 5 7 8 16 11 25" id="ak"/><path fill="#3a414a" d="M206 0h-36l-40-164L89 0H53L-1-190h32L70-26l43-164h34l41 164 42-164h31" id="al"/><path fill="#3a414a" d="M85-194c31 0 48 13 60 33l-1-100h32l1 261h-30c-2-10 0-23-3-31C134-8 116 4 85 4 32 4 16-35 15-94c0-66 23-100 70-100zm9 24c-40 0-46 34-46 75 0 40 6 74 45 74 42 0 51-32 51-76 0-42-9-74-50-73" id="am"/><g id="e"><use transform="matrix(0.06172839506172839,0,0,0.06172839506172839,0,0)" xlink:href="#ak"/><use transform="matrix(0.06172839506172839,0,0,0.06172839506172839,14.814814814814813,0)" xlink:href="#V"/><use transform="matrix(0.06172839506172839,0,0,0.06172839506172839,20.98765432098765,0)" xlink:href="#X"/><use transform="matrix(0.06172839506172839,0,0,0.06172839506172839,33.33333333333333,0)" xlink:href="#V"/><use transform="matrix(0.06172839506172839,0,0,0.06172839506172839,39.50617283950617,0)" xlink:href="#S"/><use transform="matrix(0.06172839506172839,0,0,0.06172839506172839,51.85185185185185,0)" xlink:href="#al"/><use transform="matrix(0.06172839506172839,0,0,0.06172839506172839,67.8395061728395,0)" xlink:href="#Q"/><use transform="matrix(0.06172839506172839,0,0,0.06172839506172839,72.71604938271605,0)" xlink:href="#am"/><use transform="matrix(0.06172839506172839,0,0,0.06172839506172839,85.06172839506173,0)" xlink:href="#S"/></g><path fill="#3a414a" d="M115-194c53 0 69 39 70 98 0 66-23 100-70 100C84 3 66-7 56-30L54 0H23l1-261h32v101c10-23 28-34 59-34zm-8 174c40 0 45-34 45-75 0-40-5-75-45-74-42 0-51 32-51 76 0 43 10 73 51 73" id="an"/><g id="f"><use transform="matrix(0.06172839506172839,0,0,0.06172839506172839,0,0)" xlink:href="#P"/><use transform="matrix(0.06172839506172839,0,0,0.06172839506172839,15.987654320987653,0)" xlink:href="#X"/><use transform="matrix(0.06172839506172839,0,0,0.06172839506172839,28.333333333333332,0)" xlink:href="#V"/><use transform="matrix(0.06172839506172839,0,0,0.06172839506172839,34.50617283950617,0)" xlink:href="#X"/><use transform="matrix(0.06172839506172839,0,0,0.06172839506172839,46.85185185185185,0)" xlink:href="#an"/><use transform="matrix(0.06172839506172839,0,0,0.06172839506172839,59.197530864197525,0)" xlink:href="#X"/><use transform="matrix(0.06172839506172839,0,0,0.06172839506172839,71.5432098765432,0)" xlink:href="#Y"/><use transform="matrix(0.06172839506172839,0,0,0.06172839506172839,82.65432098765432,0)" xlink:href="#S"/></g><path fill="#3a414a" d="M140-251c81 0 123 46 123 126C263-53 228-8 163 1c7 30 30 48 69 40v23c-55 16-95-15-103-61C56-3 17-48 17-125c0-80 42-126 123-126zm0 227c63 0 89-41 89-101s-29-99-89-99c-61 0-89 39-89 99S79-25 140-24" id="ao"/><g id="g"><use transform="matrix(0.06172839506172839,0,0,0.06172839506172839,0,0)" xlink:href="#ao"/><use transform="matrix(0.06172839506172839,0,0,0.06172839506172839,17.28395061728395,0)" xlink:href="#ac"/><use transform="matrix(0.06172839506172839,0,0,0.06172839506172839,29.629629629629626,0)" xlink:href="#S"/><use transform="matrix(0.06172839506172839,0,0,0.06172839506172839,41.9753086419753,0)" xlink:href="#T"/><use transform="matrix(0.06172839506172839,0,0,0.06172839506172839,49.32098765432098,0)" xlink:href="#Q"/><use transform="matrix(0.06172839506172839,0,0,0.06172839506172839,54.197530864197525,0)" xlink:href="#S"/><use transform="matrix(0.06172839506172839,0,0,0.06172839506172839,66.5432098765432,0)" xlink:href="#Y"/></g><path fill="#3a414a" d="M232-93c-1 65-40 97-104 97C67 4 28-28 28-90v-158h33c8 89-33 224 67 224 102 0 64-133 71-224h33v155" id="ap"/><g id="h"><use transform="matrix(0.06172839506172839,0,0,0.06172839506172839,0,0)" xlink:href="#ap"/><use transform="matrix(0.06172839506172839,0,0,0.06172839506172839,15.987654320987653,0)" xlink:href="#Y"/><use transform="matrix(0.06172839506172839,0,0,0.06172839506172839,27.098765432098766,0)" xlink:href="#S"/><use transform="matrix(0.06172839506172839,0,0,0.06172839506172839,39.44444444444444,0)" xlink:href="#T"/></g><path fill="#3a414a" d="M33 0v-248h34V0H33" id="aq"/><g id="i"><use transform="matrix(0.06172839506172839,0,0,0.06172839506172839,0,0)" xlink:href="#aq"/><use transform="matrix(0.06172839506172839,0,0,0.06172839506172839,6.172839506172839,0)" xlink:href="#U"/><use transform="matrix(0.06172839506172839,0,0,0.06172839506172839,18.51851851851852,0)" xlink:href="#V"/><use transform="matrix(0.06172839506172839,0,0,0.06172839506172839,24.691358024691358,0)" xlink:href="#S"/><use transform="matrix(0.06172839506172839,0,0,0.06172839506172839,37.03703703703704,0)" xlink:href="#T"/><use transform="matrix(0.06172839506172839,0,0,0.06172839506172839,44.382716049382715,0)" xlink:href="#R"/><use transform="matrix(0.06172839506172839,0,0,0.06172839506172839,50.55555555555556,0)" xlink:href="#X"/><use transform="matrix(0.06172839506172839,0,0,0.06172839506172839,62.901234567901234,0)" xlink:href="#ad"/><use transform="matrix(0.06172839506172839,0,0,0.06172839506172839,74.01234567901234,0)" xlink:href="#S"/></g><g id="j"><use transform="matrix(0.06172839506172839,0,0,0.06172839506172839,0,0)" xlink:href="#ap"/><use transform="matrix(0.06172839506172839,0,0,0.06172839506172839,15.987654320987653,0)" xlink:href="#Y"/><use transform="matrix(0.06172839506172839,0,0,0.06172839506172839,27.098765432098766,0)" xlink:href="#S"/><use transform="matrix(0.06172839506172839,0,0,0.06172839506172839,39.44444444444444,0)" xlink:href="#T"/></g><path d="M240 0l2-218c-23 76-54 145-80 218h-23L58-218 59 0H30v-248h44l77 211c21-75 51-140 76-211h43V0h-30" id="ar"/><path d="M84 4C-5 8 30-112 23-190h32v120c0 31 7 50 39 49 72-2 45-101 50-169h31l1 190h-30c-1-10 1-25-2-33-11 22-28 36-60 37" id="as"/><path d="M117-194c89-4 53 116 60 194h-32v-121c0-31-8-49-39-48C34-167 62-67 57 0H25l-1-190h30c1 10-1 24 2 32 11-22 29-35 61-36" id="at"/><path d="M24-231v-30h32v30H24zM24 0v-190h32V0H24" id="au"/><path d="M96-169c-40 0-48 33-48 73s9 75 48 75c24 0 41-14 43-38l32 2c-6 37-31 61-74 61-59 0-76-41-82-99-10-93 101-131 147-64 4 7 5 14 7 22l-32 3c-4-21-16-35-41-35" id="av"/><path d="M115-194c55 1 70 41 70 98S169 2 115 4C84 4 66-9 55-30l1 105H24l-1-265h31l2 30c10-21 28-34 59-34zm-8 174c40 0 45-34 45-75s-6-73-45-74c-42 0-51 32-51 76 0 43 10 73 51 73" id="aw"/><path d="M141-36C126-15 110 5 73 4 37 3 15-17 15-53c-1-64 63-63 125-63 3-35-9-54-41-54-24 1-41 7-42 31l-33-3c5-37 33-52 76-52 45 0 72 20 72 64v82c-1 20 7 32 28 27v20c-31 9-61-2-59-35zM48-53c0 20 12 33 32 33 41-3 63-29 60-74-43 2-92-5-92 41" id="ax"/><path d="M24 0v-261h32V0H24" id="ay"/><path d="M59-47c-2 24 18 29 38 22v24C64 9 27 4 27-40v-127H5v-23h24l9-43h21v43h35v23H59v120" id="az"/><path d="M179-190L93 31C79 59 56 82 12 73V49c39 6 53-20 64-50L1-190h34L92-34l54-156h33" id="aA"/><g id="k"><use transform="matrix(0.05,0,0,0.05,0,0)" xlink:href="#ar"/><use transform="matrix(0.05,0,0,0.05,14.950000000000001,0)" xlink:href="#as"/><use transform="matrix(0.05,0,0,0.05,24.950000000000003,0)" xlink:href="#at"/><use transform="matrix(0.05,0,0,0.05,34.95,0)" xlink:href="#au"/><use transform="matrix(0.05,0,0,0.05,38.900000000000006,0)" xlink:href="#av"/><use transform="matrix(0.05,0,0,0.05,47.900000000000006,0)" xlink:href="#au"/><use transform="matrix(0.05,0,0,0.05,51.85,0)" xlink:href="#aw"/><use transform="matrix(0.05,0,0,0.05,61.85,0)" xlink:href="#ax"/><use transform="matrix(0.05,0,0,0.05,71.85000000000001,0)" xlink:href="#ay"/><use transform="matrix(0.05,0,0,0.05,75.80000000000001,0)" xlink:href="#au"/><use transform="matrix(0.05,0,0,0.05,79.75000000000001,0)" xlink:href="#az"/><use transform="matrix(0.05,0,0,0.05,84.75000000000001,0)" xlink:href="#aA"/></g><path d="M30-248c118-7 216 8 213 122C240-48 200 0 122 0H30v-248zM63-27c89 8 146-16 146-99s-60-101-146-95v194" id="aB"/><g id="l"><use transform="matrix(0.05,0,0,0.05,0,0)" xlink:href="#aB"/><use transform="matrix(0.05,0,0,0.05,12.950000000000001,0)" xlink:href="#ax"/><use transform="matrix(0.05,0,0,0.05,22.950000000000003,0)" xlink:href="#az"/><use transform="matrix(0.05,0,0,0.05,27.950000000000003,0)" xlink:href="#ax"/></g><path d="M185-189c-5-48-123-54-124 2 14 75 158 14 163 119 3 78-121 87-175 55-17-10-28-26-33-46l33-7c5 56 141 63 141-1 0-78-155-14-162-118-5-82 145-84 179-34 5 7 8 16 11 25" id="aC"/><path d="M100-194c63 0 86 42 84 106H49c0 40 14 67 53 68 26 1 43-12 49-29l28 8c-11 28-37 45-77 45C44 4 14-33 15-96c1-61 26-98 85-98zm52 81c6-60-76-77-97-28-3 7-6 17-6 28h103" id="aD"/><g id="m"><use transform="matrix(0.05,0,0,0.05,0,0)" xlink:href="#aC"/><use transform="matrix(0.05,0,0,0.05,12,0)" xlink:href="#az"/><use transform="matrix(0.05,0,0,0.05,17,0)" xlink:href="#ax"/><use transform="matrix(0.05,0,0,0.05,27,0)" xlink:href="#az"/><use transform="matrix(0.05,0,0,0.05,32,0)" xlink:href="#aD"/></g><path d="M135-143c-3-34-86-38-87 0 15 53 115 12 119 90S17 21 10-45l28-5c4 36 97 45 98 0-10-56-113-15-118-90-4-57 82-63 122-42 12 7 21 19 24 35" id="aE"/><g id="n"><use transform="matrix(0.05,0,0,0.05,0,0)" xlink:href="#ar"/><use transform="matrix(0.05,0,0,0.05,14.950000000000001,0)" xlink:href="#aD"/><use transform="matrix(0.05,0,0,0.05,24.950000000000003,0)" xlink:href="#ax"/><use transform="matrix(0.05,0,0,0.05,34.95,0)" xlink:href="#at"/><use transform="matrix(0.05,0,0,0.05,44.95,0)" xlink:href="#aE"/></g><path d="M100-194c62-1 85 37 85 99 1 63-27 99-86 99S16-35 15-95c0-66 28-99 85-99zM99-20c44 1 53-31 53-75 0-43-8-75-51-75s-53 32-53 75 10 74 51 75" id="aF"/><path d="M101-234c-31-9-42 10-38 44h38v23H63V0H32v-167H5v-23h27c-7-52 17-82 69-68v24" id="aG"/><g id="o"><use transform="matrix(0.05,0,0,0.05,0,0)" xlink:href="#aF"/><use transform="matrix(0.05,0,0,0.05,10,0)" xlink:href="#aG"/></g><path d="M127-220V0H93v-220H8v-28h204v28h-85" id="aH"/><path d="M114-163C36-179 61-72 57 0H25l-1-190h30c1 12-1 29 2 39 6-27 23-49 58-41v29" id="aI"/><g id="p"><use transform="matrix(0.05,0,0,0.05,0,0)" xlink:href="#aH"/><use transform="matrix(0.05,0,0,0.05,10.3,0)" xlink:href="#aI"/><use transform="matrix(0.05,0,0,0.05,16.25,0)" xlink:href="#ax"/><use transform="matrix(0.05,0,0,0.05,26.25,0)" xlink:href="#at"/><use transform="matrix(0.05,0,0,0.05,36.25,0)" xlink:href="#aE"/><use transform="matrix(0.05,0,0,0.05,45.25,0)" xlink:href="#aw"/><use transform="matrix(0.05,0,0,0.05,55.25,0)" xlink:href="#aF"/><use transform="matrix(0.05,0,0,0.05,65.25,0)" xlink:href="#aI"/><use transform="matrix(0.05,0,0,0.05,71.2,0)" xlink:href="#az"/><use transform="matrix(0.05,0,0,0.05,76.2,0)" xlink:href="#ax"/><use transform="matrix(0.05,0,0,0.05,86.2,0)" xlink:href="#az"/><use transform="matrix(0.05,0,0,0.05,91.2,0)" xlink:href="#au"/><use transform="matrix(0.05,0,0,0.05,95.15,0)" xlink:href="#aF"/><use transform="matrix(0.05,0,0,0.05,105.15,0)" xlink:href="#at"/></g><g id="q"><use transform="matrix(0.05,0,0,0.05,0,0)" xlink:href="#az"/><use transform="matrix(0.05,0,0,0.05,5,0)" xlink:href="#aF"/></g><path d="M266 0h-40l-56-210L115 0H75L2-248h35L96-30l15-64 43-154h32l59 218 59-218h35" id="aJ"/><path d="M143 0L79-87 56-68V0H24v-261h32v163l83-92h37l-77 82L181 0h-38" id="aK"/><g id="r"><use transform="matrix(0.05,0,0,0.05,0,0)" xlink:href="#aJ"/><use transform="matrix(0.05,0,0,0.05,16.599999999999998,0)" xlink:href="#aF"/><use transform="matrix(0.05,0,0,0.05,26.599999999999994,0)" xlink:href="#aI"/><use transform="matrix(0.05,0,0,0.05,32.55,0)" xlink:href="#aK"/></g><path d="M137 0h-34L2-248h35l83 218 83-218h36" id="aL"/><path d="M106-169C34-169 62-67 57 0H25v-261h32l-1 103c12-21 28-36 61-36 89 0 53 116 60 194h-32v-121c2-32-8-49-39-48" id="aM"/><g id="s"><use transform="matrix(0.05,0,0,0.05,0,0)" xlink:href="#aL"/><use transform="matrix(0.05,0,0,0.05,11,0)" xlink:href="#aD"/><use transform="matrix(0.05,0,0,0.05,21,0)" xlink:href="#aM"/><use transform="matrix(0.05,0,0,0.05,31,0)" xlink:href="#au"/><use transform="matrix(0.05,0,0,0.05,34.95,0)" xlink:href="#av"/><use transform="matrix(0.05,0,0,0.05,43.95,0)" xlink:href="#ay"/><use transform="matrix(0.05,0,0,0.05,47.900000000000006,0)" xlink:href="#aD"/></g><path d="M30 0v-248h187v28H63v79h144v27H63v87h162V0H30" id="aN"/><path d="M210-169c-67 3-38 105-44 169h-31v-121c0-29-5-50-35-48C34-165 62-65 56 0H25l-1-190h30c1 10-1 24 2 32 10-44 99-50 107 0 11-21 27-35 58-36 85-2 47 119 55 194h-31v-121c0-29-5-49-35-48" id="aO"/><g id="t"><use transform="matrix(0.05,0,0,0.05,0,0)" xlink:href="#aN"/><use transform="matrix(0.05,0,0,0.05,12,0)" xlink:href="#aO"/><use transform="matrix(0.05,0,0,0.05,26.950000000000003,0)" xlink:href="#au"/><use transform="matrix(0.05,0,0,0.05,30.900000000000002,0)" xlink:href="#aE"/><use transform="matrix(0.05,0,0,0.05,39.900000000000006,0)" xlink:href="#aE"/><use transform="matrix(0.05,0,0,0.05,48.900000000000006,0)" xlink:href="#au"/><use transform="matrix(0.05,0,0,0.05,52.85,0)" xlink:href="#aF"/><use transform="matrix(0.05,0,0,0.05,62.85,0)" xlink:href="#at"/><use transform="matrix(0.05,0,0,0.05,72.85000000000001,0)" xlink:href="#aE"/></g><path d="M85-194c31 0 48 13 60 33l-1-100h32l1 261h-30c-2-10 0-23-3-31C134-8 116 4 85 4 32 4 16-35 15-94c0-66 23-100 70-100zm9 24c-40 0-46 34-46 75 0 40 6 74 45 74 42 0 51-32 51-76 0-42-9-74-50-73" id="aP"/><g id="u"><use transform="matrix(0.05,0,0,0.05,0,0)" xlink:href="#ax"/><use transform="matrix(0.05,0,0,0.05,10,0)" xlink:href="#at"/><use transform="matrix(0.05,0,0,0.05,20,0)" xlink:href="#aP"/></g><g id="v"><use transform="matrix(0.05,0,0,0.05,0,0)" xlink:href="#ar"/><use transform="matrix(0.05,0,0,0.05,14.950000000000001,0)" xlink:href="#au"/><use transform="matrix(0.05,0,0,0.05,18.900000000000002,0)" xlink:href="#ay"/><use transform="matrix(0.05,0,0,0.05,22.85,0)" xlink:href="#aD"/><use transform="matrix(0.05,0,0,0.05,32.85,0)" xlink:href="#aE"/></g><path d="M108 0H70L1-190h34L89-25l56-165h34" id="aQ"/><g id="w"><use transform="matrix(0.05,0,0,0.05,0,0)" xlink:href="#aH"/><use transform="matrix(0.05,0,0,0.05,10.3,0)" xlink:href="#aI"/><use transform="matrix(0.05,0,0,0.05,16.25,0)" xlink:href="#ax"/><use transform="matrix(0.05,0,0,0.05,26.25,0)" xlink:href="#aQ"/><use transform="matrix(0.05,0,0,0.05,35.25,0)" xlink:href="#aD"/><use transform="matrix(0.05,0,0,0.05,45.25,0)" xlink:href="#ay"/><use transform="matrix(0.05,0,0,0.05,49.2,0)" xlink:href="#aD"/><use transform="matrix(0.05,0,0,0.05,59.2,0)" xlink:href="#aP"/></g><g id="x"><use transform="matrix(0.06172839506172839,0,0,0.06172839506172839,0,0)" xlink:href="#ak"/><use transform="matrix(0.06172839506172839,0,0,0.06172839506172839,14.814814814814813,0)" xlink:href="#ag"/><use transform="matrix(0.06172839506172839,0,0,0.06172839506172839,25.925925925925924,0)" xlink:href="#Y"/><use transform="matrix(0.06172839506172839,0,0,0.06172839506172839,37.03703703703704,0)" xlink:href="#V"/><use transform="matrix(0.06172839506172839,0,0,0.06172839506172839,43.20987654320988,0)" xlink:href="#S"/><use transform="matrix(0.06172839506172839,0,0,0.06172839506172839,55.55555555555556,0)" xlink:href="#aj"/></g><path d="M30-248c87 1 191-15 191 75 0 78-77 80-158 76V0H30v-248zm33 125c57 0 124 11 124-50 0-59-68-47-124-48v98" id="aR"/><g id="y"><use transform="matrix(0.05,0,0,0.05,0,0)" xlink:href="#aR"/><use transform="matrix(0.05,0,0,0.05,12,0)" xlink:href="#aF"/><use transform="matrix(0.05,0,0,0.05,22,0)" xlink:href="#aw"/><use transform="matrix(0.05,0,0,0.05,32,0)" xlink:href="#as"/><use transform="matrix(0.05,0,0,0.05,42,0)" xlink:href="#ay"/><use transform="matrix(0.05,0,0,0.05,45.95,0)" xlink:href="#ax"/><use transform="matrix(0.05,0,0,0.05,55.95,0)" xlink:href="#az"/><use transform="matrix(0.05,0,0,0.05,60.95,0)" xlink:href="#au"/><use transform="matrix(0.05,0,0,0.05,64.9,0)" xlink:href="#aF"/><use transform="matrix(0.05,0,0,0.05,74.9,0)" xlink:href="#at"/></g><path d="M33 0v-248h34V0H33" id="aS"/><g id="z"><use transform="matrix(0.05,0,0,0.05,0,0)" xlink:href="#aS"/><use transform="matrix(0.05,0,0,0.05,5,0)" xlink:href="#at"/><use transform="matrix(0.05,0,0,0.05,15,0)" xlink:href="#aG"/><use transform="matrix(0.05,0,0,0.05,20,0)" xlink:href="#aF"/><use transform="matrix(0.05,0,0,0.05,30,0)" xlink:href="#aI"/><use transform="matrix(0.05,0,0,0.05,35.95,0)" xlink:href="#aO"/><use transform="matrix(0.05,0,0,0.05,50.900000000000006,0)" xlink:href="#ax"/><use transform="matrix(0.05,0,0,0.05,60.900000000000006,0)" xlink:href="#az"/><use transform="matrix(0.05,0,0,0.05,65.9,0)" xlink:href="#au"/><use transform="matrix(0.05,0,0,0.05,69.85000000000001,0)" xlink:href="#aF"/><use transform="matrix(0.05,0,0,0.05,79.85000000000001,0)" xlink:href="#at"/></g><path fill="#333" d="M15-91v-56l181-69v40L49-119l147 57v40" id="aT"/><path fill="#333" d="M25-224v-37h50v37H25zM25 0v-190h50V0H25" id="aU"/><path fill="#333" d="M135-194c87-1 58 113 63 194h-50c-7-57 23-157-34-157-59 0-34 97-39 157H25l-1-190h47c2 12-1 28 3 38 12-26 28-41 61-42" id="aV"/><path fill="#333" d="M190-63c-7 42-38 67-86 67-59 0-84-38-90-98-12-110 154-137 174-36l-49 2c-2-19-15-32-35-32-30 0-35 28-38 64-6 74 65 87 74 30" id="aW"/><path fill="#333" d="M25 0v-261h50V0H25" id="aX"/><path fill="#333" d="M85 4C-2 5 27-109 22-190h50c7 57-23 150 33 157 60-5 35-97 40-157h50l1 190h-47c-2-12 1-28-3-38-12 25-28 42-61 42" id="aY"/><path fill="#333" d="M88-194c31-1 46 15 58 34l-1-101h50l1 261h-48c-2-10 0-23-3-31C134-8 116 4 84 4 32 4 16-41 15-95c0-56 19-97 73-99zm17 164c33 0 40-30 41-66 1-37-9-64-41-64s-38 30-39 65c0 43 13 65 39 65" id="aZ"/><path fill="#333" d="M185-48c-13 30-37 53-82 52C43 2 14-33 14-96s30-98 90-98c62 0 83 45 84 108H66c0 31 8 55 39 56 18 0 30-7 34-22zm-45-69c5-46-57-63-70-21-2 6-4 13-4 21h74" id="ba"/><path fill="#333" d="M15-22v-40l146-57-146-57v-40l181 69v56" id="bb"/><g id="A"><use transform="matrix(0.04938271604938272,0,0,0.04938271604938272,0,0)" xlink:href="#aT"/><use transform="matrix(0.04938271604938272,0,0,0.04938271604938272,10.370370370370372,0)" xlink:href="#aT"/><use transform="matrix(0.04938271604938272,0,0,0.04938271604938272,20.740740740740744,0)" xlink:href="#aU"/><use transform="matrix(0.04938271604938272,0,0,0.04938271604938272,25.679012345679016,0)" xlink:href="#aV"/><use transform="matrix(0.04938271604938272,0,0,0.04938271604938272,36.49382716049383,0)" xlink:href="#aW"/><use transform="matrix(0.04938271604938272,0,0,0.04938271604938272,46.370370370370374,0)" xlink:href="#aX"/><use transform="matrix(0.04938271604938272,0,0,0.04938271604938272,51.308641975308646,0)" xlink:href="#aY"/><use transform="matrix(0.04938271604938272,0,0,0.04938271604938272,62.12345679012346,0)" xlink:href="#aZ"/><use transform="matrix(0.04938271604938272,0,0,0.04938271604938272,72.93827160493828,0)" xlink:href="#ba"/><use transform="matrix(0.04938271604938272,0,0,0.04938271604938272,82.81481481481482,0)" xlink:href="#bb"/><use transform="matrix(0.04938271604938272,0,0,0.04938271604938272,93.18518518518519,0)" xlink:href="#bb"/></g><path d="M212-179c-10-28-35-45-73-45-59 0-87 40-87 99 0 60 29 101 89 101 43 0 62-24 78-52l27 14C228-24 195 4 139 4 59 4 22-46 18-125c-6-104 99-153 187-111 19 9 31 26 39 46" id="bc"/><g id="B"><use transform="matrix(0.05,0,0,0.05,0,0)" xlink:href="#bc"/><use transform="matrix(0.05,0,0,0.05,12.950000000000001,0)" xlink:href="#aF"/><use transform="matrix(0.05,0,0,0.05,22.950000000000003,0)" xlink:href="#aO"/><use transform="matrix(0.05,0,0,0.05,37.900000000000006,0)" xlink:href="#aw"/><use transform="matrix(0.05,0,0,0.05,47.900000000000006,0)" xlink:href="#ax"/><use transform="matrix(0.05,0,0,0.05,57.900000000000006,0)" xlink:href="#aI"/><use transform="matrix(0.05,0,0,0.05,63.85,0)" xlink:href="#aD"/></g><g id="C"><use transform="matrix(0.05,0,0,0.05,0,0)" xlink:href="#ar"/><use transform="matrix(0.05,0,0,0.05,14.950000000000001,0)" xlink:href="#aD"/><use transform="matrix(0.05,0,0,0.05,24.950000000000003,0)" xlink:href="#ax"/><use transform="matrix(0.05,0,0,0.05,34.95,0)" xlink:href="#at"/><use transform="matrix(0.05,0,0,0.05,44.95,0)" xlink:href="#aE"/></g><g id="D"><use transform="matrix(0.05,0,0,0.05,0,0)" xlink:href="#aH"/><use transform="matrix(0.05,0,0,0.05,10.3,0)" xlink:href="#aI"/><use transform="matrix(0.05,0,0,0.05,16.25,0)" xlink:href="#ax"/><use transform="matrix(0.05,0,0,0.05,26.25,0)" xlink:href="#at"/><use transform="matrix(0.05,0,0,0.05,36.25,0)" xlink:href="#aE"/><use transform="matrix(0.05,0,0,0.05,45.25,0)" xlink:href="#aw"/><use transform="matrix(0.05,0,0,0.05,55.25,0)" xlink:href="#aF"/><use transform="matrix(0.05,0,0,0.05,65.25,0)" xlink:href="#aI"/><use transform="matrix(0.05,0,0,0.05,71.2,0)" xlink:href="#az"/><use transform="matrix(0.05,0,0,0.05,76.2,0)" xlink:href="#ax"/><use transform="matrix(0.05,0,0,0.05,86.2,0)" xlink:href="#az"/><use transform="matrix(0.05,0,0,0.05,91.2,0)" xlink:href="#au"/><use transform="matrix(0.05,0,0,0.05,95.15,0)" xlink:href="#aF"/><use transform="matrix(0.05,0,0,0.05,105.15,0)" xlink:href="#at"/></g><g id="E"><use transform="matrix(0.05,0,0,0.05,0,0)" xlink:href="#aL"/><use transform="matrix(0.05,0,0,0.05,11,0)" xlink:href="#aD"/><use transform="matrix(0.05,0,0,0.05,21,0)" xlink:href="#aM"/><use transform="matrix(0.05,0,0,0.05,31,0)" xlink:href="#au"/><use transform="matrix(0.05,0,0,0.05,34.95,0)" xlink:href="#av"/><use transform="matrix(0.05,0,0,0.05,43.95,0)" xlink:href="#ay"/><use transform="matrix(0.05,0,0,0.05,47.900000000000006,0)" xlink:href="#aD"/></g><g id="F"><use transform="matrix(0.05,0,0,0.05,0,0)" xlink:href="#ar"/><use transform="matrix(0.05,0,0,0.05,14.950000000000001,0)" xlink:href="#au"/><use transform="matrix(0.05,0,0,0.05,18.900000000000002,0)" xlink:href="#ay"/><use transform="matrix(0.05,0,0,0.05,22.85,0)" xlink:href="#aD"/><use transform="matrix(0.05,0,0,0.05,32.85,0)" xlink:href="#aE"/></g><g id="G"><use transform="matrix(0.05,0,0,0.05,0,0)" xlink:href="#bc"/><use transform="matrix(0.05,0,0,0.05,12.950000000000001,0)" xlink:href="#aF"/><use transform="matrix(0.05,0,0,0.05,22.950000000000003,0)" xlink:href="#aO"/><use transform="matrix(0.05,0,0,0.05,37.900000000000006,0)" xlink:href="#aw"/><use transform="matrix(0.05,0,0,0.05,47.900000000000006,0)" xlink:href="#ax"/><use transform="matrix(0.05,0,0,0.05,57.900000000000006,0)" xlink:href="#aI"/><use transform="matrix(0.05,0,0,0.05,63.85,0)" xlink:href="#aD"/></g><g id="H"><use transform="matrix(0.05,0,0,0.05,0,0)" xlink:href="#aN"/><use transform="matrix(0.05,0,0,0.05,12,0)" xlink:href="#aL"/></g><path d="M140-251c81 0 123 46 123 126C263-46 219 4 140 4 59 4 17-45 17-125s42-126 123-126zm0 227c63 0 89-41 89-101s-29-99-89-99c-61 0-89 39-89 99S79-25 140-24" id="bd"/><path d="M206 0h-36l-40-164L89 0H53L-1-190h32L70-26l43-164h34l41 164 42-164h31" id="be"/><g id="I"><use transform="matrix(0.05,0,0,0.05,0,0)" xlink:href="#bd"/><use transform="matrix(0.05,0,0,0.05,14,0)" xlink:href="#be"/><use transform="matrix(0.05,0,0,0.05,26.950000000000003,0)" xlink:href="#at"/><use transform="matrix(0.05,0,0,0.05,36.95,0)" xlink:href="#aD"/><use transform="matrix(0.05,0,0,0.05,46.95,0)" xlink:href="#aI"/><use transform="matrix(0.05,0,0,0.05,52.900000000000006,0)" xlink:href="#aE"/><use transform="matrix(0.05,0,0,0.05,61.900000000000006,0)" xlink:href="#aM"/><use transform="matrix(0.05,0,0,0.05,71.9,0)" xlink:href="#au"/><use transform="matrix(0.05,0,0,0.05,75.85000000000001,0)" xlink:href="#aw"/></g><g id="J"><use transform="matrix(0.05,0,0,0.05,0,0)" xlink:href="#aR"/><use transform="matrix(0.05,0,0,0.05,12,0)" xlink:href="#aF"/><use transform="matrix(0.05,0,0,0.05,22,0)" xlink:href="#aw"/><use transform="matrix(0.05,0,0,0.05,32,0)" xlink:href="#as"/><use transform="matrix(0.05,0,0,0.05,42,0)" xlink:href="#ay"/><use transform="matrix(0.05,0,0,0.05,45.95,0)" xlink:href="#ax"/><use transform="matrix(0.05,0,0,0.05,55.95,0)" xlink:href="#az"/><use transform="matrix(0.05,0,0,0.05,60.95,0)" xlink:href="#au"/><use transform="matrix(0.05,0,0,0.05,64.9,0)" xlink:href="#aF"/><use transform="matrix(0.05,0,0,0.05,74.9,0)" xlink:href="#at"/></g><path d="M143 4C61 4 22-44 18-125c-5-107 100-154 193-111 17 8 29 25 37 43l-32 9c-13-25-37-40-76-40-61 0-88 39-88 99 0 61 29 100 91 101 35 0 62-11 79-27v-45h-74v-28h105v86C228-13 192 4 143 4" id="bf"/><g id="K"><use transform="matrix(0.05,0,0,0.05,0,0)" xlink:href="#bf"/><use transform="matrix(0.05,0,0,0.05,14,0)" xlink:href="#aI"/><use transform="matrix(0.05,0,0,0.05,19.95,0)" xlink:href="#aD"/><use transform="matrix(0.05,0,0,0.05,29.950000000000003,0)" xlink:href="#aD"/><use transform="matrix(0.05,0,0,0.05,39.95,0)" xlink:href="#at"/><use transform="matrix(0.05,0,0,0.05,49.95,0)" xlink:href="#aM"/><use transform="matrix(0.05,0,0,0.05,59.95,0)" xlink:href="#aF"/><use transform="matrix(0.05,0,0,0.05,69.95,0)" xlink:href="#as"/><use transform="matrix(0.05,0,0,0.05,79.95,0)" xlink:href="#aE"/><use transform="matrix(0.05,0,0,0.05,88.95,0)" xlink:href="#aD"/></g><g id="L"><use transform="matrix(0.05,0,0,0.05,0,0)" xlink:href="#bf"/><use transform="matrix(0.05,0,0,0.05,14,0)" xlink:href="#ax"/><use transform="matrix(0.05,0,0,0.05,24,0)" xlink:href="#aE"/><use transform="matrix(0.05,0,0,0.05,33,0)" xlink:href="#aD"/><use transform="matrix(0.05,0,0,0.05,43,0)" xlink:href="#aE"/></g><g id="M"><use transform="matrix(0.05,0,0,0.05,0,0)" xlink:href="#aH"/><use transform="matrix(0.05,0,0,0.05,9.950000000000001,0)" xlink:href="#be"/><use transform="matrix(0.05,0,0,0.05,22.900000000000002,0)" xlink:href="#aF"/></g><g id="N"><use transform="matrix(0.05,0,0,0.05,0,0)" xlink:href="#ar"/><use transform="matrix(0.05,0,0,0.05,14.950000000000001,0)" xlink:href="#as"/><use transform="matrix(0.05,0,0,0.05,24.950000000000003,0)" xlink:href="#at"/><use transform="matrix(0.05,0,0,0.05,34.95,0)" xlink:href="#au"/><use transform="matrix(0.05,0,0,0.05,38.900000000000006,0)" xlink:href="#av"/><use transform="matrix(0.05,0,0,0.05,47.900000000000006,0)" xlink:href="#au"/><use transform="matrix(0.05,0,0,0.05,51.85,0)" xlink:href="#aw"/><use transform="matrix(0.05,0,0,0.05,61.85,0)" xlink:href="#ax"/><use transform="matrix(0.05,0,0,0.05,71.85000000000001,0)" xlink:href="#ay"/><use transform="matrix(0.05,0,0,0.05,75.80000000000001,0)" xlink:href="#au"/><use transform="matrix(0.05,0,0,0.05,79.75000000000001,0)" xlink:href="#az"/><use transform="matrix(0.05,0,0,0.05,84.75000000000001,0)" xlink:href="#aA"/></g><path d="M30 0v-248h33v221h125V0H30" id="bg"/><path d="M177-190C167-65 218 103 67 71c-23-6-38-20-44-43l32-5c15 47 100 32 89-28v-30C133-14 115 1 83 1 29 1 15-40 15-95c0-56 16-97 71-98 29-1 48 16 59 35 1-10 0-23 2-32h30zM94-22c36 0 50-32 50-73 0-42-14-75-50-75-39 0-46 34-46 75s6 73 46 73" id="bh"/><g id="O"><use transform="matrix(0.05,0,0,0.05,0,0)" xlink:href="#bg"/><use transform="matrix(0.05,0,0,0.05,10,0)" xlink:href="#au"/><use transform="matrix(0.05,0,0,0.05,13.949999999999998,0)" xlink:href="#aE"/><use transform="matrix(0.05,0,0,0.05,22.95,0)" xlink:href="#az"/><use transform="matrix(0.05,0,0,0.05,27.950000000000003,0)" xlink:href="#au"/><use transform="matrix(0.05,0,0,0.05,31.899999999999995,0)" xlink:href="#at"/><use transform="matrix(0.05,0,0,0.05,41.9,0)" xlink:href="#bh"/></g></defs></g></svg>